<?xml version="1.0" encoding="UTF-8"?>
<svg width="48px" height="48px" viewBox="0 0 48 48" version="1.1" xmlns="http://www.w3.org/2000/svg" xmlns:xlink="http://www.w3.org/1999/xlink">
    <!-- Generator: Sketch 53.1 (72631) - https://sketchapp.com -->
    <title>Group 16 Copy 2</title>
    <desc>Created with Sketch.</desc>
    <defs>
        <circle id="path-1" cx="24" cy="24" r="24"></circle>
        <filter x="-15.2%" y="-15.2%" width="130.4%" height="130.4%" filterUnits="objectBoundingBox" id="filter-3">
            <feGaussianBlur stdDeviation="2.43024554" in="SourceGraphic"></feGaussianBlur>
        </filter>
        <filter x="0.0%" y="0.0%" width="100.0%" height="100.0%" filterUnits="objectBoundingBox" id="filter-4">
            <feGaussianBlur stdDeviation="0" in="SourceGraphic"></feGaussianBlur>
        </filter>
    </defs>
    <g id="设计稿" stroke="none" stroke-width="1" fill="none" fill-rule="evenodd">
        <g id="Group-16-Copy-2">
            <g id="Mask-Copy-16">
                <mask id="mask-2" fill="white">
                    <use xlink:href="#path-1"></use>
                </mask>
                <use id="Mask" fill="#FFD014" xlink:href="#path-1"></use>
                <circle id="Mask-Copy-5" fill="#FFE05F" filter="url(#filter-3)" mask="url(#mask-2)" cx="24" cy="16" r="24"></circle>
            </g>
            <ellipse id="Oval-5-Copy-27" fill="#FA7934" opacity="0.416836504" cx="39.4285714" cy="19.1428571" rx="3.42857143" ry="5.14285714"></ellipse>
            <ellipse id="Oval-5-Copy-31" fill="#FA7934" opacity="0.416836504" filter="url(#filter-4)" cx="8.42857143" cy="19.1428571" rx="3.42857143" ry="5.14285714"></ellipse>
            <g id="Group-15-Copy-8" transform="translate(16.000000, 14.000000)">
                <path d="M3.65212139,9 C4.59395975,10.4711012 6.24261167,11.4461869 8.11900706,11.4461869 C9.99540245,11.4461869 11.6440544,10.4711012 12.5858927,9" id="Combined-Shape-Copy-8" stroke="#522401" stroke-width="2" transform="translate(8.119007, 10.223093) scale(1, -1) translate(-8.119007, -10.223093) "></path>
                <g id="Group-14" fill="#522401">
                    <circle id="Oval-7" cx="2" cy="2" r="2"></circle>
                    <circle id="Oval-7-Copy" cx="14" cy="2" r="2"></circle>
                </g>
            </g>
            <g id="Group-6" transform="translate(15.000000, 10.000000)" stroke="#522401" stroke-width="2">
                <path d="M17,0 L12,3" id="Path-2-Copy-2"></path>
                <path d="M5,0 L0,3" id="Path-2-Copy-3" transform="translate(2.500000, 1.500000) scale(-1, 1) translate(-2.500000, -1.500000) "></path>
            </g>
        </g>
    </g>
</svg>