<?xml version="1.0" encoding="UTF-8"?>
<svg width="48px" height="48px" viewBox="0 0 48 48" version="1.1" xmlns="http://www.w3.org/2000/svg" xmlns:xlink="http://www.w3.org/1999/xlink">
    <!-- Generator: Sketch 53.1 (72631) - https://sketchapp.com -->
    <title>Group 8 Copy 9</title>
    <desc>Created with Sketch.</desc>
    <defs>
        <circle id="path-1" cx="24" cy="24" r="24"></circle>
        <filter x="-19.1%" y="-19.1%" width="138.3%" height="138.3%" filterUnits="objectBoundingBox" id="filter-3">
            <feGaussianBlur stdDeviation="3.06361607" in="SourceGraphic"></feGaussianBlur>
        </filter>
        <filter x="0.0%" y="0.0%" width="100.0%" height="100.0%" filterUnits="objectBoundingBox" id="filter-4">
            <feGaussianBlur stdDeviation="0" in="SourceGraphic"></feGaussianBlur>
        </filter>
    </defs>
    <g id="设计稿" stroke="none" stroke-width="1" fill="none" fill-rule="evenodd">
        <g id="Group-8-Copy-9">
            <g id="Mask-Copy-5">
                <g id="Group-21">
                    <mask id="mask-2" fill="white">
                        <use xlink:href="#path-1"></use>
                    </mask>
                    <use id="Mask" fill="#FFD014" xlink:href="#path-1"></use>
                    <circle id="Mask-Copy-5" fill="#FFE05F" filter="url(#filter-3)" mask="url(#mask-2)" cx="18.7826087" cy="20.8695652" r="24"></circle>
                    <path d="M15.531833,18.8662338 C15.531833,16.9726861 13.9968093,15.4376624 12.1032616,15.4376624 C10.2097139,15.4376624 8.67469014,16.9726861 8.67469014,18.8662338" id="Oval-2-Copy-16" stroke="#522401" stroke-width="2" mask="url(#mask-2)" transform="translate(12.103262, 17.151948) rotate(-15.000000) translate(-12.103262, -17.151948) "></path>
                    <path d="M29.0970504,14.6488425 C29.0970504,12.7552948 27.5620267,11.2202711 25.668479,11.2202711 C23.7749312,11.2202711 22.2399075,12.7552948 22.2399075,14.6488425" id="Oval-2-Copy-17" stroke="#522401" stroke-width="2" mask="url(#mask-2)" transform="translate(25.668479, 12.934557) rotate(-15.000000) translate(-25.668479, -12.934557) "></path>
                    <path d="M15.8937646,23.7491217 C17.605649,26.4229938 20.6022372,28.1953086 24.0127716,28.1953086 C27.4233061,28.1953086 30.4198942,26.4229938 32.1317787,23.7491217" id="Combined-Shape-Copy-4" stroke="#522401" stroke-width="2" mask="url(#mask-2)" transform="translate(24.012772, 25.972215) rotate(-22.000000) translate(-24.012772, -25.972215) "></path>
                    <ellipse id="Oval-5-Copy-6" fill="#FA7934" opacity="0.416836504" mask="url(#mask-2)" transform="translate(37.130211, 16.355339) rotate(-17.000000) translate(-37.130211, -16.355339) " cx="37.1302112" cy="16.3553386" rx="3.42857143" ry="5.14285714"></ellipse>
                    <ellipse id="Oval-5-Copy-7" fill="#FA7934" opacity="0.416836504" filter="url(#filter-4)" mask="url(#mask-2)" transform="translate(6.869342, 26.790121) rotate(-17.000000) translate(-6.869342, -26.790121) " cx="6.8693416" cy="26.7901212" rx="3.42857143" ry="5.14285714"></ellipse>
                </g>
            </g>
            <g id="Group-7" transform="translate(2.086957, 10.391304)"></g>
        </g>
    </g>
</svg>