<?xml version="1.0" encoding="UTF-8"?>
<svg width="50px" height="50px" viewBox="0 0 50 50" version="1.1" xmlns="http://www.w3.org/2000/svg" xmlns:xlink="http://www.w3.org/1999/xlink">
    <!-- Generator: Sketch 53.1 (72631) - https://sketchapp.com -->
    <title>Group 16 Copy 3unselected</title>
    <desc>Created with Sketch.</desc>
    <defs>
        <circle id="path-1" cx="24" cy="24" r="24"></circle>
        <filter x="0.0%" y="0.0%" width="100.0%" height="100.0%" filterUnits="objectBoundingBox" id="filter-3">
            <feGaussianBlur stdDeviation="0" in="SourceGraphic"></feGaussianBlur>
        </filter>
    </defs>
    <g id="设计稿" stroke="none" stroke-width="1" fill="none" fill-rule="evenodd">
        <g id="Group-16-Copy-3" transform="translate(25.000000, 25.000000) scale(-1, 1) translate(-25.000000, -25.000000) translate(1.000000, 1.000000)">
            <g id="Mask-Copy-16">
                <mask id="mask-2" fill="white">
                    <use xlink:href="#path-1"></use>
                </mask>
                <use id="Mask" stroke="#C1C1C1" stroke-width="1.5" xlink:href="#path-1"></use>
            </g>
            <ellipse id="Oval-5-Copy-27" fill="#C1C1C1" opacity="0.4" cx="39.4285714" cy="19.1428571" rx="3.42857143" ry="5.14285714"></ellipse>
            <ellipse id="Oval-5-Copy-31" fill="#C1C1C1" opacity="0.4" filter="url(#filter-3)" cx="8.42857143" cy="19.1428571" rx="3.42857143" ry="5.14285714"></ellipse>
            <g id="Group-15-Copy-8" transform="translate(16.000000, 14.000000)">
                <path d="M4,9 C4.94882048,10.2027709 6.60969435,11 8.5,11 C10.3903057,11 12.0511795,10.2027709 13,9" id="Combined-Shape-Copy-8" stroke="#C1C1C1" stroke-width="2" transform="translate(8.500000, 10.000000) scale(1, -1) translate(-8.500000, -10.000000) "></path>
                <g id="Group-14" fill="#C1C1C1">
                    <circle id="Oval-7" cx="2" cy="2" r="2"></circle>
                    <circle id="Oval-7-Copy" cx="14" cy="2" r="2"></circle>
                </g>
            </g>
            <g id="Group-6" transform="translate(15.000000, 10.000000)" stroke="#C1C1C1" stroke-width="2">
                <path d="M17.4509236,0 L12,2.50747525" id="Path-2-Copy-2"></path>
                <path d="M5.45092358,0 L0,2.50747525" id="Path-2-Copy-3" transform="translate(2.725462, 1.253738) scale(-1, 1) translate(-2.725462, -1.253738) "></path>
            </g>
        </g>
    </g>
</svg>